{
  "accessors": [
    {
      "bufferView": 1,
      "componentType": 5126,
      "count": 65532,
      "max": [
        18.031286239624023,
        16.11334800720215,
        22.286476135253906
      ],
      "min": [
        -14.639815330505371,
        -25.572982788085938,
        -21.660160064697266
      ],
      "type": "VEC3"
    },
    {
      "bufferView": 1,
      "byteOffset": 786384,
      "componentType": 5126,
      "count": 65532,
      "max": [
        0.9999904632568359,
        0.9997125267982483,
        0.9999632835388184
      ],
      "min": [
        -0.996182382106781,
        -0.9999967813491821,
        -0.9980996251106262
      ],
      "type": "VEC3"
    },
    {
      "bufferView": 0,
      "componentType": 5125,
      "count": 382218,
      "type": "SCALAR"
    },
    {
      "bufferView": 1,
      "byteOffset": 1572768,
      "componentType": 5126,
      "count": 62973,
      "max": [
        17.807479858398438,
        18.818035125732422,
        22.17081069946289
      ],
      "min": [
        -18.043123245239258,
        -25.22869110107422,
        -26.25704574584961
      ],
      "type": "VEC3"
    },
    {
      "bufferView": 1,
      "byteOffset": 2328444,
      "componentType": 5126,
      "count": 62973,
      "max": [
        0.9973964095115662,
        0.9999708533287048,
        0.9995650053024292
      ],
      "min": [
        -0.9999904632568359,
        -0.999659538269043,
        -0.9998970031738281
      ],
      "type": "VEC3"
    },
    {
      "bufferView": 0,
      "byteOffset": 1528872,
      "componentType": 5125,
      "count": 355710,
      "type": "SCALAR"
    }
  ],
  "asset": {
    "extras": {
      "author": "Payzero (https://sketchfab.com/master16finearts)",
      "license": "CC-BY-4.0 (http://creativecommons.org/licenses/by/4.0/)",
      "source": "https://sketchfab.com/3d-models/human-head-by-sculptgl-7f30d2b9f2394edab07b527dcdc993d8",
      "title": "human head by sculptgl"
    },
    "generator": "Sketchfab-14.25.0",
    "version": "2.0"
  },
  "bufferViews": [
    {
      "buffer": 0,
      "byteLength": 2951712,
      "name": "floatBufferViews",
      "target": 34963
    },
    {
      "buffer": 0,
      "byteLength": 3084120,
      "byteOffset": 2951712,
      "byteStride": 12,
      "name": "floatBufferViews",
      "target": 34962
    }
  ],
  "buffers": [
    {
      "byteLength": 6035832,
      "uri": "scene.bin"
    }
  ],
  "materials": [
    {
      "doubleSided": true,
      "name": "Scene_-_Root",
      "pbrMetallicRoughness": {
        "metallicFactor": 0.0,
        "roughnessFactor": 0.6
      }
    }
  ],
  "meshes": [
    {
      "name": "Object_0",
      "primitives": [
        {
          "attributes": {
            "NORMAL": 1,
            "POSITION": 0
          },
          "indices": 2,
          "material": 0,
          "mode": 4
        }
      ]
    },
    {
      "name": "Object_1",
      "primitives": [
        {
          "attributes": {
            "NORMAL": 4,
            "POSITION": 3
          },
          "indices": 5,
          "material": 0,
          "mode": 4
        }
      ]
    }
  ],
  "nodes": [
    {
      "children": [
        1
      ],
      "matrix": [
        1.0,
        0.0,
        0.0,
        0.0,
        0.0,
        2.220446049250313e-16,
        -1.0,
        0.0,
        0.0,
        1.0,
        2.220446049250313e-16,
        0.0,
        0.0,
        0.0,
        0.0,
        1.0
      ],
      "name": "Sketchfab_model"
    },
    {
      "children": [
        2,
        3
      ],
      "name": "Geode"
    },
    {
      "mesh": 0,
      "name": "Object_2"
    },
    {
      "mesh": 1,
      "name": "Object_3"
    }
  ],
  "scene": 0,
  "scenes": [
    {
      "name": "Sketchfab_Scene",
      "nodes": [
        0
      ]
    }
  ]
}
